<svg xmlns="http://www.w3.org/2000/svg" xmlns:xlink="http://www.w3.org/1999/xlink" width="500" zoomAndPan="magnify" viewBox="0 0 375 374.999991" height="500" preserveAspectRatio="xMidYMid meet" version="1.0"><defs><clipPath id="9d11e85218"><path d="M 0 65.113281 L 374.875 65.113281 L 374.875 309.613281 L 0 309.613281 Z M 0 65.113281 " clip-rule="nonzero"/></clipPath></defs><g clip-path="url(#9d11e85218)"><path fill="#e8e8e8" d="M 187.5 160.320312 L 245.894531 137.890625 L 187.5 115.15625 L 129.109375 137.882812 Z M 255.226562 235.636719 L 255.226562 208.890625 L 70.746094 138.015625 L 187.5 92.5625 L 304.253906 138.015625 L 212.847656 173.132812 L 248.488281 186.828125 L 375.128906 138.171875 L 187.5 65.132812 L -0.125 138.171875 L 219.585938 222.585938 L 187.5 234.910156 L 73.152344 190.976562 L 73.152344 265.914062 L 187.5 309.847656 L 301.855469 265.914062 L 301.855469 190.976562 L 272.363281 202.304688 L 272.363281 232.609375 L 265.382812 229.570312 Z M 255.226562 235.636719 " fill-opacity="1" fill-rule="evenodd"/></g></svg>